<?xml version="1.0" encoding="UTF-8" standalone="no"?><!-- Generator: Gravit.io --><svg xmlns="http://www.w3.org/2000/svg" xmlns:xlink="http://www.w3.org/1999/xlink" style="isolation:isolate" viewBox="0 0 444.542 446.16" width="444.542pt" height="446.16pt"><defs><clipPath id="_clipPath_0f7dRFdGSAiohzZJqqGDhd8wYGiz6TGQ"><rect width="444.542" height="446.16"/></clipPath></defs><g clip-path="url(#_clipPath_0f7dRFdGSAiohzZJqqGDhd8wYGiz6TGQ)"><clipPath id="_clipPath_Xk9LNl0ZjPpixjcz9sbm8tEJ1HNaezzh"><path d=" M 0 0 L 0 446.16 L 444.542 446.16 L 444.542 0 L 0 0 Z " fill="rgb(255,255,255)"/></clipPath><g clip-path="url(#_clipPath_Xk9LNl0ZjPpixjcz9sbm8tEJ1HNaezzh)"><path d=" M 108.803 102.485 L 108.803 102.485 C 89.882 102.485 74.544 87.146 74.544 68.226 C 74.544 49.305 89.882 33.966 108.803 33.966 C 127.724 33.966 143.062 49.305 143.062 68.226 C 143.062 87.146 127.724 102.485 108.803 102.485 Z " fill="rgb(229,229,228)"/><path d=" M 93.268 83.495 L 100.359 83.495 L 100.359 60.589 L 93.268 60.589 L 93.268 83.495 Z " fill="rgb(254,254,254)"/><path d=" M 96.78 57.589 C 99.096 57.589 100.973 55.695 100.973 53.362 C 100.973 51.028 99.096 49.136 96.78 49.136 C 94.463 49.136 92.587 51.028 92.587 53.362 C 92.587 55.695 94.463 57.589 96.78 57.589 Z " fill="rgb(254,254,254)"/><path d=" M 111.693 71.471 C 111.693 68.25 113.175 66.332 116.013 66.332 C 118.62 66.332 119.873 68.173 119.873 71.471 C 119.873 74.77 119.873 83.495 119.873 83.495 L 126.93 83.495 C 126.93 83.495 126.93 75.127 126.93 68.992 C 126.93 62.856 123.452 59.89 118.596 59.89 C 113.737 59.89 111.693 63.674 111.693 63.674 L 111.693 60.589 L 104.891 60.589 L 104.891 83.495 L 111.693 83.495 C 111.693 83.495 111.693 75 111.693 71.471 Z " fill="rgb(254,254,254)"/><path d=" M 154.717 0 L 159.409 8.578 L 167.986 13.269 L 159.409 17.96 L 154.717 26.538 L 150.026 17.96 L 141.448 13.269 L 150.026 8.578 L 154.717 0 Z " fill="rgb(239,238,237)"/><path d=" M 350.368 232.387 L 353.885 238.82 L 360.319 242.338 L 353.885 245.856 L 350.368 252.29 L 346.849 245.856 L 340.415 242.338 L 346.849 238.82 L 350.368 232.387 Z " fill="rgb(229,229,228)"/><path d=" M 360.319 200.622 L 361.907 203.524 L 364.809 205.112 L 361.907 206.7 L 360.319 209.602 L 358.732 206.7 L 355.828 205.112 L 358.732 203.524 L 360.319 200.622 Z " fill="rgb(216,217,217)"/><path d=" M 121.21 3.227 L 122.798 6.129 L 125.7 7.716 L 122.798 9.304 L 121.21 12.207 L 119.623 9.304 L 116.72 7.716 L 119.623 6.129 L 121.21 3.227 Z " fill="rgb(216,217,217)"/><path d=" M 41.63 272.872 C 45.209 271.315 47.721 267.571 47.685 263.198 C 47.634 257.469 43.239 252.86 37.867 252.905 C 32.496 252.95 28.182 257.631 28.233 263.359 C 28.271 267.773 30.898 271.496 34.556 272.963 C 19.618 275.412 20.507 291.67 20.507 291.67 L 55.902 291.375 C 55.902 291.375 56.496 274.92 41.63 272.872 Z " fill="rgb(216,217,217)"/><path d=" M 381.132 380.052 C 380.631 377.505 378.12 375.514 375.527 375.607 C 372.956 375.7 370.617 377.83 370.267 380.375 C 369.895 377.833 367.536 375.724 364.966 375.654 C 362.371 375.584 359.877 377.597 359.4 380.147 C 359.051 382.005 359.688 383.938 360.734 385.513 C 361.78 387.087 363.207 388.362 364.62 389.619 C 366.597 391.379 368.424 393.034 370.403 394.794 C 372.365 393.017 374.034 391.347 375.996 389.568 C 377.397 388.3 378.814 387.012 379.845 385.429 C 380.876 383.845 381.496 381.906 381.132 380.052 Z " fill="rgb(229,229,228)"/><path d=" M 404.184 169.264 L 407.977 168.512 L 413.966 155.336 L 412.465 147.765 C 412.465 147.765 418.255 146.242 419.532 156.292 C 420.808 166.343 421.054 163.67 421.054 163.67 C 421.054 163.67 433.511 161.249 434.759 162.126 C 435.667 162.762 438.459 175.06 439.92 181.739 C 440.655 185.102 439.206 188.652 436.226 190.073 C 435.802 190.275 435.365 190.431 434.921 190.519 C 431.818 191.134 415.454 191.756 415.454 191.756 L 408.903 193.055 L 404.184 169.264 Z " fill="rgb(216,217,217)"/><path d=" M 392.915 169.339 L 400.392 194.817 L 406.887 193.529 L 401.846 168.11 L 392.915 169.339 Z " fill="rgb(216,217,217)"/><path d=" M 442.966 445.436 C 442.966 445.581 343.796 445.697 221.494 445.697 C 99.148 445.697 0 445.581 0 445.436 C 0 445.293 99.148 445.177 221.494 445.177 C 343.796 445.177 442.966 445.293 442.966 445.436 Z " fill="rgb(44,61,67)"/><path d=" M 365.929 159.264 L 365.929 159.264 C 345.75 169.078 321.435 160.676 311.62 140.497 C 301.806 120.317 310.208 96.002 330.388 86.188 C 350.568 76.373 374.882 84.776 384.697 104.955 C 394.511 125.135 386.109 149.449 365.929 159.264 Z " fill="rgb(240,99,109)"/><path d=" M 338.118 131.808 C 338.801 131.764 339.204 131.291 339.063 130.578 C 338.964 130.085 338.701 128.849 338.598 128.33 C 338.461 127.622 338.29 127.436 337.564 127.116 C 335.985 126.419 334.597 125.197 333.541 123.026 C 330.478 116.727 332.448 108.796 340.007 105.119 C 346.701 101.864 352.368 104.165 355.025 109.628 C 358.52 116.815 358.289 124.427 353.568 126.724 C 350.959 127.992 347.959 126.785 347.298 123.837 C 346.513 120.314 346.306 116.201 345.197 113.921 C 344.204 111.881 342.282 110.711 340.015 111.813 C 337.349 113.11 336.548 116.91 338.345 120.604 C 339.49 122.956 341.06 124.161 341.06 124.161 C 341.06 124.161 343.953 137.047 344.459 139.303 C 345.466 143.797 348.68 148.346 348.992 148.811 C 349.177 149.088 349.59 148.973 349.654 148.667 C 349.745 148.226 351.012 142.761 350.185 138.321 C 349.953 137.063 348.608 130.617 348.608 130.617 C 350.277 131.848 353.516 132.07 356.206 130.762 C 364.22 126.864 366.104 116.916 361.348 107.138 C 357.751 99.744 348.142 95.904 338.623 100.533 C 326.781 106.293 324.938 117.688 328.382 124.769 C 330.467 129.056 333.946 132.081 338.118 131.808 Z " fill="rgb(254,254,254)"/><path d=" M 406.509 273.869 L 406.509 273.869 C 392.052 268.345 384.811 252.147 390.335 237.69 C 395.859 223.233 412.057 215.991 426.514 221.516 C 440.971 227.04 448.212 243.237 442.689 257.694 C 437.164 272.151 420.966 279.393 406.509 273.869 Z " fill="rgb(240,99,109)"/><path d=" M 412.42 259.183 C 410.011 258.263 408.046 256.694 406.643 254.745 L 401.535 254.456 L 404.682 250.652 C 404.005 248.17 404.077 245.467 405.06 242.893 C 405.206 242.51 405.373 242.135 405.556 241.774 C 408.411 236.043 415.263 233.313 421.408 235.661 C 427.631 238.039 430.917 244.778 429.078 251.019 C 428.989 251.333 428.885 251.641 428.767 251.951 C 426.288 258.438 418.953 261.68 412.42 259.183 Z  M 431.141 252.45 C 433.839 244.813 429.929 236.361 422.26 233.431 C 414.683 230.536 406.239 234.108 403.064 241.427 C 402.98 241.629 402.895 241.831 402.817 242.035 C 401.805 244.683 401.601 247.433 402.075 250.034 L 396.666 256.567 L 405.422 257.068 C 407.018 258.949 409.099 260.471 411.568 261.414 C 419.356 264.39 428.058 260.537 431.011 252.809 C 431.056 252.689 431.102 252.571 431.141 252.45 Z " fill-rule="evenodd" fill="rgb(254,254,254)"/><path d=" M 422.296 252.716 C 422.011 252.411 420.633 250.931 420.359 250.697 C 420.087 250.457 419.876 250.316 419.515 250.571 C 419.153 250.826 418.191 251.344 417.907 251.492 C 417.615 251.645 417.407 251.597 417.122 251.291 C 416.844 250.988 415.866 250.206 414.995 248.526 C 414.317 247.231 414.046 245.842 413.979 245.424 C 413.912 245.005 414.161 244.888 414.398 244.782 C 414.617 244.684 414.895 244.511 415.149 244.381 L 415.337 244.264 C 415.464 244.168 415.569 244.072 415.711 243.937 C 415.918 243.752 415.935 243.531 415.914 243.327 C 415.895 243.122 415.847 241.168 415.819 240.37 C 415.797 239.576 415.461 239.584 415.257 239.506 C 415.059 239.43 414.84 239.309 414.61 239.221 C 414.378 239.132 413.969 239.074 413.522 239.296 C 413.074 239.519 411.866 240.01 411.219 241.699 C 411.069 242.095 410.99 242.519 410.952 242.936 C 410.839 244.276 411.211 245.561 411.278 245.783 C 411.364 246.073 412.214 250.497 415.199 253.219 C 418.194 255.929 418.368 255.473 419.025 255.656 C 419.678 255.845 421.386 255.612 421.977 254.916 C 422.573 254.228 422.834 253.542 422.804 253.364 C 422.772 253.192 422.573 253.019 422.296 252.716 Z " fill-rule="evenodd" fill="rgb(254,254,254)"/><path d=" M 42.128 144.354 L 42.128 144.354 C 30.327 144.354 20.76 134.788 20.76 122.986 C 20.76 111.185 30.327 101.618 42.128 101.618 C 53.93 101.618 63.496 111.185 63.496 122.986 C 63.496 134.788 53.93 144.354 42.128 144.354 Z " fill="rgb(240,99,109)"/><path d=" M 30.743 130.14 C 32.81 131.465 35.266 132.239 37.904 132.239 C 46.578 132.239 51.477 124.913 51.183 118.342 C 52.095 117.684 52.887 116.861 53.513 115.924 C 52.675 116.295 51.774 116.546 50.83 116.659 C 51.794 116.082 52.535 115.166 52.884 114.075 C 51.981 114.61 50.981 114.999 49.918 115.208 C 49.065 114.301 47.851 113.734 46.507 113.734 C 43.492 113.734 41.276 116.547 41.957 119.47 C 38.074 119.275 34.632 117.415 32.329 114.588 C 31.104 116.688 31.694 119.436 33.774 120.826 C 33.008 120.802 32.287 120.591 31.658 120.241 C 31.607 122.406 33.158 124.43 35.404 124.881 C 34.747 125.061 34.027 125.101 33.296 124.961 C 33.889 126.817 35.615 128.167 37.659 128.206 C 35.695 129.745 33.221 130.433 30.743 130.14 Z " fill="rgb(254,254,254)"/><path d=" M 80.529 383.728 L 80.528 383.728 C 60.756 388.437 40.909 376.228 36.198 356.454 C 31.488 336.682 43.698 316.834 63.471 312.124 L 63.471 312.124 C 83.244 307.414 103.091 319.624 107.801 339.396 C 112.512 359.17 100.302 379.017 80.529 383.728 Z " fill="rgb(67,96,105)"/><path d=" M 67.324 328.296 C 61.992 329.565 61.329 329.748 59.258 330.342 C 57.191 330.936 55.844 331.607 54.71 332.39 C 53.539 333.199 52.604 334.131 51.773 335.481 C 50.941 336.833 50.531 338.089 50.338 339.499 C 50.149 340.862 50.157 342.368 50.56 344.48 C 50.963 346.598 51.1 347.27 52.37 352.603 C 53.64 357.934 53.822 358.597 54.416 360.668 C 55.009 362.734 55.681 364.082 56.464 365.215 C 57.272 366.387 58.205 367.321 59.556 368.153 C 60.907 368.984 62.162 369.395 63.572 369.589 C 64.936 369.776 66.442 369.769 68.555 369.366 C 70.671 368.963 71.345 368.826 76.676 367.556 C 82.007 366.286 82.67 366.104 84.742 365.51 C 86.808 364.917 88.156 364.245 89.289 363.462 C 90.46 362.653 91.395 361.721 92.226 360.37 C 93.058 359.019 93.468 357.764 93.663 356.353 C 93.85 354.989 93.842 353.483 93.44 351.371 C 93.037 349.255 92.899 348.581 91.629 343.25 C 90.359 337.918 90.178 337.255 89.584 335.184 C 88.991 333.117 88.319 331.77 87.536 330.637 C 86.727 329.466 85.795 328.53 84.444 327.699 C 83.092 326.868 81.838 326.457 80.427 326.264 C 79.063 326.076 77.557 326.083 75.445 326.485 C 73.328 326.89 72.655 327.025 67.324 328.296 Z  M 68.166 331.832 C 73.408 330.584 74.033 330.456 76.125 330.058 C 78.06 329.688 79.176 329.761 79.932 329.865 C 80.933 330.003 81.688 330.272 82.538 330.796 C 83.389 331.319 83.97 331.871 84.544 332.702 C 84.978 333.331 85.545 334.294 86.089 336.187 C 86.676 338.234 86.845 338.851 88.093 344.092 C 89.342 349.333 89.469 349.959 89.868 352.052 C 90.236 353.986 90.164 355.102 90.06 355.857 C 89.923 356.859 89.653 357.613 89.13 358.465 C 88.607 359.315 88.054 359.896 87.223 360.471 C 86.595 360.904 85.631 361.472 83.739 362.016 C 81.691 362.603 81.076 362.77 75.833 364.019 C 70.592 365.268 69.966 365.395 67.874 365.795 C 65.939 366.163 64.824 366.091 64.068 365.986 C 63.067 365.849 62.312 365.579 61.461 365.056 C 60.611 364.532 60.03 363.98 59.455 363.148 C 59.022 362.52 58.454 361.558 57.911 359.665 C 57.323 357.617 57.155 357.001 55.907 351.76 C 54.658 346.519 54.53 345.893 54.131 343.801 C 53.763 341.865 53.835 340.75 53.939 339.994 C 54.077 338.993 54.347 338.237 54.87 337.388 C 55.393 336.536 55.946 335.955 56.777 335.381 C 57.405 334.947 58.368 334.38 60.261 333.837 C 62.308 333.249 62.924 333.081 68.166 331.832 Z " fill="rgb(254,254,254)"/><path d=" M 73.559 354.47 C 69.945 355.33 66.317 353.098 65.456 349.484 C 64.596 345.871 66.827 342.243 70.441 341.383 C 74.055 340.521 77.682 342.753 78.543 346.367 C 79.404 349.98 77.172 353.608 73.559 354.47 Z  M 69.599 337.846 C 64.032 339.172 60.593 344.76 61.919 350.327 C 63.246 355.895 68.834 359.332 74.401 358.006 C 79.969 356.68 83.406 351.092 82.08 345.524 C 80.754 339.957 75.166 336.52 69.599 337.846 Z " fill="rgb(254,254,254)"/><path d=" M 82.338 334.39 C 82.647 335.69 81.844 336.997 80.543 337.307 C 79.242 337.616 77.936 336.812 77.626 335.512 C 77.316 334.211 78.12 332.905 79.421 332.595 C 80.722 332.285 82.028 333.089 82.338 334.39 Z " fill="rgb(254,254,254)"/><path d=" M 359.304 351.336 L 359.304 351.336 C 349.825 351.336 342.14 343.651 342.14 334.172 C 342.14 324.693 349.825 317.009 359.304 317.009 C 368.783 317.009 376.467 324.693 376.467 334.172 C 376.467 343.651 368.783 351.336 359.304 351.336 Z " fill="rgb(67,96,105)"/><path d=" M 356.688 344.547 L 360.867 344.547 L 360.867 334.084 L 363.782 334.084 L 364.092 330.581 L 360.867 330.581 C 360.867 330.581 360.867 329.273 360.867 328.586 C 360.867 327.76 361.033 327.434 361.83 327.434 C 362.473 327.434 364.092 327.434 364.092 327.434 L 364.092 323.798 C 364.092 323.798 361.708 323.798 361.199 323.798 C 358.09 323.798 356.688 325.167 356.688 327.788 C 356.688 330.071 356.688 330.581 356.688 330.581 L 354.515 330.581 L 354.515 334.128 L 356.688 334.128 L 356.688 344.547 Z " fill="rgb(254,254,254)"/><path d=" M 300.767 446.16 L 162.88 446.078 C 146.297 446.07 132.859 432.621 132.862 416.037 L 132.93 70.352 C 132.933 53.759 146.39 40.312 162.983 40.321 L 300.87 40.402 C 317.454 40.413 330.892 53.861 330.888 70.444 L 330.821 416.131 C 330.818 432.724 317.361 446.171 300.767 446.16 Z " fill="rgb(44,61,67)"/><path d=" M 300.724 52.629 L 273.991 52.614 C 270.406 52.612 267.497 55.649 267.497 59.396 L 267.495 64.246 C 267.496 67.993 264.588 71.03 261.003 71.028 L 208.893 70.998 C 205.308 70.996 202.402 67.955 202.403 64.207 L 202.404 59.358 C 202.405 55.61 199.498 52.57 195.913 52.568 L 186.511 52.562 L 163.112 52.548 C 151.492 52.542 142.067 61.959 142.065 73.58 L 141.999 410.994 C 141.996 422.609 151.408 432.027 163.022 432.035 L 300.633 432.115 C 312.253 432.122 321.678 422.705 321.681 411.084 L 321.747 73.669 C 321.749 62.054 312.338 52.636 300.724 52.629 Z " fill="rgb(254,254,254)"/><path d=" M 302.738 80.041 C 302.738 80.131 299.261 80.233 294.973 80.269 C 290.684 80.304 287.206 80.26 287.205 80.169 C 287.205 80.079 290.681 79.976 294.97 79.941 C 299.259 79.906 302.737 79.95 302.738 80.041 Z " fill="rgb(44,61,67)"/><path d=" M 302.77 84.015 C 302.771 84.105 299.294 84.207 295.006 84.243 C 290.716 84.278 287.24 84.233 287.239 84.143 C 287.238 84.052 290.713 83.95 295.003 83.915 C 299.291 83.879 302.769 83.924 302.77 84.015 Z " fill="rgb(44,61,67)"/><path d=" M 302.803 87.988 C 302.804 88.079 299.328 88.181 295.038 88.216 C 290.749 88.252 287.272 88.207 287.272 88.117 C 287.271 88.026 290.746 87.924 295.036 87.889 C 299.325 87.853 302.802 87.898 302.803 87.988 Z " fill="rgb(44,61,67)"/><path d=" M 156.516 91.864 C 156.524 91.856 156.663 91.848 156.923 91.837 C 157.244 91.826 157.616 91.814 158.055 91.799 C 159.123 91.774 160.52 91.741 162.234 91.7 L 162.119 91.817 C 162.104 90.891 162.087 89.879 162.07 88.787 C 162.076 88.224 162.021 87.693 162.076 87.042 C 162.189 86.394 162.767 85.821 163.478 85.754 C 164.152 85.741 164.745 85.71 165.475 85.744 C 166.228 85.836 166.869 86.56 166.846 87.358 C 166.862 88.771 166.879 90.248 166.896 91.778 L 166.702 91.587 C 168.395 91.57 170.158 91.552 171.974 91.534 L 171.774 91.738 C 171.755 89.614 171.735 87.418 171.715 85.168 C 171.71 84.607 171.706 84.05 171.701 83.496 C 171.699 82.98 171.385 82.635 170.96 82.25 C 170.18 81.481 169.411 80.723 168.655 79.978 C 167.9 79.233 167.158 78.501 166.432 77.784 C 166.069 77.426 165.709 77.071 165.354 76.72 C 164.984 76.363 164.693 75.994 164.264 75.906 C 163.848 75.794 163.389 75.882 163.054 76.137 C 162.735 76.407 162.394 76.789 162.073 77.102 C 161.424 77.757 160.792 78.394 160.181 79.01 C 158.991 80.247 157.752 81.375 156.85 82.443 C 156.471 83.032 156.613 83.753 156.585 84.41 C 156.584 85.063 156.582 85.683 156.581 86.268 C 156.575 87.407 156.568 88.405 156.563 89.26 C 156.554 90.025 156.547 90.657 156.541 91.174 C 156.534 91.616 156.526 91.854 156.516 91.864 C 156.506 91.874 156.495 91.656 156.48 91.23 C 156.466 90.721 156.448 90.099 156.427 89.346 C 156.408 88.484 156.385 87.478 156.359 86.33 C 156.348 85.733 156.336 85.101 156.324 84.435 C 156.319 84.098 156.313 83.752 156.308 83.399 C 156.305 83.024 156.401 82.638 156.599 82.295 C 157.574 81.101 158.738 80.042 159.937 78.771 C 160.544 78.149 161.17 77.507 161.814 76.847 C 162.152 76.516 162.429 76.185 162.831 75.839 C 163.253 75.515 163.832 75.398 164.36 75.538 C 164.921 75.662 165.286 76.122 165.626 76.443 C 165.983 76.793 166.344 77.146 166.708 77.503 C 167.437 78.218 168.182 78.948 168.938 79.69 C 169.696 80.433 170.466 81.189 171.248 81.957 C 171.433 82.153 171.656 82.319 171.837 82.595 C 172.007 82.857 172.105 83.168 172.113 83.484 C 172.118 84.041 172.123 84.601 172.128 85.165 C 172.145 87.415 172.162 89.611 172.178 91.734 L 172.18 91.937 L 171.977 91.938 C 170.161 91.95 168.398 91.961 166.705 91.972 L 166.512 91.973 L 166.511 91.781 C 166.503 90.25 166.495 88.774 166.488 87.361 C 166.51 86.724 166.015 86.162 165.423 86.081 C 164.816 86.049 164.101 86.07 163.511 86.075 C 162.944 86.122 162.471 86.577 162.374 87.1 C 162.323 87.63 162.362 88.248 162.351 88.785 C 162.351 89.877 162.352 90.889 162.352 91.815 L 162.352 91.934 L 162.236 91.933 C 160.493 91.921 159.073 91.911 157.987 91.904 C 157.557 91.896 157.194 91.89 156.881 91.885 C 156.633 91.878 156.509 91.872 156.516 91.864 Z " fill="rgb(44,61,67)"/><path d=" M 247.476 355.52 C 247.476 355.557 246.962 355.591 246.032 355.622 C 245.003 355.643 243.68 355.671 242.091 355.704 C 238.765 355.752 234.169 355.78 229.093 355.78 C 224.016 355.78 219.419 355.752 216.092 355.704 C 214.504 355.671 213.181 355.643 212.153 355.622 C 211.223 355.591 210.708 355.557 210.708 355.52 C 210.708 355.484 211.223 355.45 212.153 355.419 C 213.181 355.397 214.504 355.369 216.092 355.336 C 219.419 355.289 224.016 355.26 229.093 355.26 C 234.169 355.26 238.765 355.289 242.091 355.336 C 243.68 355.369 245.003 355.397 246.032 355.419 C 246.962 355.45 247.476 355.484 247.476 355.52 Z " fill="rgb(67,96,105)"/><path d=" M 305.268 364.565 C 305.268 364.71 284.098 364.826 257.991 364.826 C 231.873 364.826 210.708 364.71 210.708 364.565 C 210.708 364.422 231.873 364.306 257.991 364.306 C 284.098 364.306 305.268 364.422 305.268 364.565 Z " fill="rgb(67,96,105)"/><path d=" M 275.718 373.075 C 275.718 373.22 261.163 373.336 243.214 373.336 C 225.259 373.336 210.708 373.22 210.708 373.075 C 210.708 372.932 225.259 372.815 243.214 372.815 C 261.163 372.815 275.718 372.932 275.718 373.075 Z " fill="rgb(67,96,105)"/><path d=" M 304.2 386.326 L 304.291 386.418 L 306.878 389.013 L 306.89 381.316 L 301.674 381.308 L 301.662 388.857 L 304.2 386.326 Z  M 307.137 389.64 L 304.2 386.693 L 301.402 389.482 L 301.414 381.048 L 307.15 381.057 L 307.137 389.64 Z " fill="rgb(44,61,67)"/><path d=" M 226.482 382.927 C 225.002 382.938 223.808 384.151 223.82 385.631 C 223.832 387.109 225.045 388.304 226.525 388.292 C 226.905 388.288 227.327 388.155 227.817 387.885 L 227.86 387.86 L 228.623 388.201 L 228.451 387.45 L 228.485 387.412 C 228.942 386.91 229.191 386.262 229.185 385.588 C 229.173 384.108 227.96 382.915 226.482 382.927 Z  M 228.906 388.543 L 227.869 388.08 C 227.368 388.352 226.928 388.485 226.526 388.489 C 224.938 388.502 223.636 387.22 223.623 385.633 C 223.611 384.045 224.892 382.742 226.48 382.729 C 228.068 382.717 229.37 383.999 229.382 385.586 C 229.388 386.293 229.134 386.973 228.665 387.506 L 228.906 388.543 Z " fill="rgb(44,61,67)"/><path d=" M 232.659 383.36 L 234.556 385.102 L 235.569 387.572 L 237.267 383.323 L 232.659 383.36 Z  M 235.571 388.098 L 234.382 385.198 L 232.154 383.167 L 237.559 383.124 L 235.571 388.098 Z " fill="rgb(44,61,67)"/><path d=" M 234.611 385.206 L 234.503 385.04 L 237.451 383.124 L 237.559 383.289 L 234.611 385.206 Z " fill="rgb(44,61,67)"/><path d=" M 220.4 383.773 C 220.245 383.001 219.481 382.399 218.695 382.431 C 217.915 382.462 217.207 383.11 217.104 383.883 C 216.988 383.112 216.27 382.475 215.49 382.456 C 214.703 382.437 213.948 383.052 213.806 383.826 C 213.703 384.39 213.898 384.976 214.217 385.452 C 214.536 385.929 214.971 386.314 215.4 386.694 C 216.002 387.227 216.558 387.727 217.161 388.258 C 217.754 387.717 218.259 387.208 218.852 386.666 C 219.276 386.28 219.704 385.888 220.016 385.406 C 220.327 384.925 220.513 384.335 220.4 383.773 Z " fill="rgb(240,99,109)"/><path d=" M 313.159 397.102 C 313.159 397.102 313.147 396.778 313.141 396.161 C 313.137 395.534 313.131 394.622 313.122 393.425 C 313.114 391.012 313.099 387.463 313.08 382.866 C 313.059 373.676 313.027 360.305 312.987 343.532 L 313.159 343.704 C 274.682 343.726 217.25 343.757 153.242 343.793 L 153.232 343.793 L 153.493 343.532 C 153.49 362.149 153.487 380.208 153.484 397.102 L 153.232 396.85 C 199.268 396.896 239.214 396.937 267.665 396.967 C 281.902 396.997 293.259 397.02 301.072 397.037 C 304.972 397.052 307.985 397.062 310.036 397.069 C 311.051 397.077 311.826 397.082 312.359 397.086 C 312.883 397.091 313.159 397.102 313.159 397.102 C 313.159 397.102 312.905 397.112 312.391 397.117 C 311.864 397.121 311.099 397.126 310.097 397.134 C 308.059 397.141 305.064 397.151 301.187 397.166 C 293.388 397.183 282.05 397.207 267.838 397.236 C 239.344 397.266 199.338 397.307 153.232 397.353 L 152.98 397.353 L 152.98 397.102 C 152.977 380.208 152.974 362.149 152.972 343.532 L 152.972 343.271 L 153.232 343.271 L 153.242 343.271 C 217.25 343.308 274.682 343.339 313.159 343.36 L 313.33 343.36 L 313.33 343.532 C 313.29 360.349 313.258 373.755 313.237 382.97 C 313.218 387.55 313.203 391.085 313.194 393.489 C 313.186 394.673 313.18 395.575 313.176 396.195 C 313.17 396.801 313.159 397.102 313.159 397.102 Z " fill="rgb(44,61,67)"/><path d=" M 204.182 352.734 L 203.981 388.15 L 159.682 387.898 L 159.883 352.483 L 204.182 352.734 Z " fill="rgb(229,229,228)"/><path d=" M 204.182 352.734 C 204.177 352.739 204.102 352.743 203.96 352.747 C 203.797 352.749 203.592 352.753 203.332 352.757 C 202.757 352.76 201.95 352.765 200.913 352.77 C 198.783 352.773 195.712 352.776 191.83 352.781 C 184.039 352.765 172.998 352.742 159.882 352.716 L 160.116 352.484 C 160.064 363.029 160.005 375.11 159.942 387.896 C 159.996 387.959 159.456 387.404 159.691 387.639 L 159.703 387.639 L 159.727 387.639 L 159.775 387.639 L 159.871 387.64 L 160.063 387.641 L 160.447 387.643 L 161.214 387.647 L 162.741 387.656 C 163.757 387.662 164.767 387.668 165.773 387.674 C 167.785 387.685 169.775 387.698 171.742 387.71 C 175.675 387.735 179.513 387.76 183.235 387.784 C 190.676 387.838 197.65 387.889 203.982 387.934 L 203.764 388.149 C 203.871 377.515 203.96 368.692 204.022 362.498 C 204.063 359.418 204.096 356.992 204.119 355.308 C 204.134 354.494 204.146 353.86 204.154 353.403 C 204.165 352.97 204.182 352.734 204.182 352.734 C 204.182 352.734 204.197 352.938 204.202 353.357 C 204.205 353.805 204.21 354.425 204.216 355.221 C 204.22 356.894 204.225 359.304 204.231 362.363 C 204.223 368.591 204.211 377.46 204.197 388.151 L 204.197 388.368 L 203.979 388.367 C 197.648 388.341 190.674 388.312 183.232 388.281 C 179.511 388.263 175.672 388.244 171.739 388.225 C 169.772 388.214 167.781 388.204 165.77 388.193 C 164.765 388.187 163.753 388.182 162.738 388.177 L 161.211 388.168 L 160.444 388.163 L 160.06 388.161 L 159.869 388.16 L 159.772 388.16 L 159.724 388.159 L 159.7 388.159 L 159.688 388.159 C 159.916 388.393 159.363 387.843 159.421 387.893 C 159.504 375.107 159.582 363.026 159.65 352.481 L 159.651 352.248 L 159.884 352.25 C 173.062 352.373 184.155 352.476 191.983 352.549 C 195.842 352.598 198.895 352.636 201.013 352.662 C 202.029 352.68 202.821 352.693 203.385 352.703 C 203.634 352.71 203.831 352.716 203.987 352.72 C 204.12 352.726 204.186 352.73 204.182 352.734 Z " fill="rgb(44,61,67)"/><path d=" M 161.222 385.678 L 202.408 385.912 L 202.584 354.955 L 161.397 354.721 L 161.222 385.678 Z " fill="rgb(216,217,217)"/><path d=" M 161.222 385.678 L 175.716 366.518 L 184.559 378.606 L 190.64 372.205 L 202.408 385.912 L 161.222 385.678 Z " fill="rgb(239,238,237)"/><path d=" M 188.424 364.232 C 188.413 366.023 186.953 367.467 185.162 367.457 C 183.371 367.446 181.928 365.986 181.937 364.195 C 181.948 362.404 183.408 360.961 185.199 360.971 C 186.99 360.981 188.433 362.441 188.424 364.232 Z " fill="rgb(239,238,237)"/><path d=" M 234.584 122.986 C 234.584 123.004 234.421 123.022 234.111 123.039 C 233.74 123.052 233.292 123.068 232.754 123.087 C 231.494 123.108 229.809 123.136 227.766 123.17 C 223.553 123.217 217.733 123.247 211.306 123.247 C 204.875 123.247 199.055 123.217 194.842 123.17 C 192.799 123.136 191.115 123.108 189.853 123.087 C 189.315 123.068 188.868 123.052 188.497 123.039 C 188.187 123.022 188.024 123.004 188.024 122.986 C 188.024 122.968 188.187 122.951 188.497 122.934 C 188.868 122.92 189.315 122.904 189.853 122.885 C 191.115 122.864 192.799 122.836 194.842 122.802 C 199.055 122.755 204.875 122.726 211.306 122.726 C 217.733 122.726 223.553 122.755 227.766 122.802 C 229.809 122.836 231.494 122.864 232.754 122.885 C 233.292 122.904 233.741 122.92 234.111 122.934 C 234.421 122.951 234.584 122.968 234.584 122.986 Z " fill="rgb(44,61,67)"/><path d=" M 295.664 313.843 L 295.801 313.978 L 299.645 317.835 L 299.662 306.396 L 291.911 306.385 L 291.893 317.603 L 295.664 313.843 Z  M 300.029 318.767 L 295.663 314.388 L 291.506 318.533 L 291.526 305.998 L 300.048 306.012 L 300.029 318.767 Z " fill="rgb(44,61,67)"/><path d=" M 184.4 306.394 C 181.488 306.417 179.139 308.805 179.162 311.716 C 179.185 314.628 181.573 316.977 184.485 316.954 C 185.232 316.947 186.064 316.685 187.028 316.152 L 187.112 316.104 L 188.616 316.776 L 188.275 315.298 L 188.344 315.223 C 189.244 314.234 189.733 312.958 189.722 311.632 C 189.699 308.72 187.311 306.371 184.4 306.394 Z  M 189.171 317.448 L 187.13 316.538 C 186.144 317.072 185.279 317.335 184.488 317.342 C 181.362 317.367 178.799 314.845 178.774 311.72 C 178.749 308.595 181.271 306.031 184.397 306.006 C 187.522 305.98 190.085 308.503 190.11 311.628 C 190.121 313.02 189.621 314.357 188.7 315.408 L 189.171 317.448 Z " fill="rgb(44,61,67)"/><path d=" M 196.558 307.247 L 200.294 310.676 L 202.286 315.538 L 205.629 307.175 L 196.558 307.247 Z  M 202.29 316.572 L 199.952 310.864 L 195.565 306.867 L 206.204 306.781 L 202.29 316.572 Z " fill="rgb(44,61,67)"/><path d=" M 200.402 310.88 L 200.19 310.554 L 205.992 306.781 L 206.204 307.107 L 200.402 310.88 Z " fill="rgb(44,61,67)"/><path d=" M 172.43 308.06 C 172.125 306.539 170.621 305.355 169.072 305.417 C 167.537 305.477 166.144 306.755 165.941 308.276 C 165.714 306.759 164.3 305.504 162.765 305.468 C 161.215 305.432 159.73 306.639 159.45 308.163 C 159.245 309.273 159.63 310.428 160.258 311.365 C 160.886 312.304 161.742 313.061 162.588 313.81 C 163.773 314.856 164.868 315.841 166.053 316.888 C 167.221 315.822 168.215 314.82 169.383 313.755 C 170.217 312.994 171.06 312.222 171.673 311.273 C 172.286 310.325 172.652 309.166 172.43 308.06 Z " fill="rgb(240,99,109)"/><path d=" M 178.677 122.986 C 178.677 126.972 175.446 130.203 171.46 130.203 C 167.474 130.203 164.244 126.972 164.244 122.986 C 164.244 119.001 167.474 115.77 171.46 115.77 C 175.446 115.77 178.677 119.001 178.677 122.986 Z " fill="rgb(229,229,228)"/><path d=" M 297.304 277.369 C 297.304 277.513 267.043 277.629 229.725 277.629 C 192.393 277.629 162.14 277.513 162.14 277.369 C 162.14 277.225 192.393 277.108 229.725 277.108 C 267.043 277.108 297.304 277.225 297.304 277.369 Z " fill="rgb(67,96,105)"/><path d=" M 297.304 266.113 C 297.304 266.257 267.043 266.374 229.725 266.374 C 192.393 266.374 162.14 266.257 162.14 266.113 C 162.14 265.97 192.393 265.853 229.725 265.853 C 267.043 265.853 297.304 265.97 297.304 266.113 Z " fill="rgb(67,96,105)"/><path d=" M 235.71 288.774 C 235.71 288.918 219.24 289.035 198.927 289.035 C 178.607 289.035 162.14 288.918 162.14 288.774 C 162.14 288.631 178.607 288.514 198.927 288.514 C 219.24 288.514 235.71 288.631 235.71 288.774 Z " fill="rgb(67,96,105)"/><path d=" M 226.632 411.404 C 226.625 413.013 225.333 414.31 223.748 414.304 C 222.162 414.296 220.882 412.985 220.889 411.377 C 220.896 409.768 222.187 408.469 223.773 408.477 C 225.359 408.483 226.638 409.794 226.632 411.404 Z " fill="rgb(44,61,67)"/><path d=" M 235.531 411.444 C 235.523 413.053 234.232 414.352 232.647 414.345 C 231.061 414.338 229.781 413.027 229.787 411.418 C 229.793 409.81 231.085 408.511 232.671 408.518 C 234.257 408.524 235.536 409.835 235.531 411.444 Z " fill="rgb(44,61,67)"/><path d=" M 244.428 411.485 C 244.421 413.094 243.13 414.393 241.544 414.385 C 239.958 414.379 238.678 413.068 238.685 411.458 C 238.692 409.85 239.983 408.552 241.569 408.559 C 243.155 408.565 244.435 409.876 244.428 411.485 Z " fill="rgb(44,61,67)"/><path d=" M 154.204 235.095 L 314.132 235.048 L 314.103 137.245 L 154.176 137.291 L 154.204 235.095 Z " fill="rgb(216,217,217)"/><path d=" M 168.954 235.089 L 214.782 173.751 L 243.193 212.11 L 262.449 191.594 L 300.214 235.051 L 168.954 235.089 Z " fill="rgb(239,238,237)"/><path d=" M 255.235 166.227 C 255.236 171.935 250.611 176.563 244.903 176.565 C 239.194 176.567 234.566 171.941 234.564 166.233 C 234.563 160.525 239.188 155.896 244.896 155.895 C 250.605 155.894 255.233 160.519 255.235 166.227 Z " fill="rgb(239,238,237)"/><path d=" M 313.687 325.967 C 313.685 323.875 313.59 235.522 313.451 104.727 L 313.687 104.963 C 265.459 104.971 211.095 104.979 153.779 104.988 L 153.761 104.988 L 154.021 104.727 C 154.003 187.466 153.986 264.038 153.972 325.967 L 153.761 325.756 C 250.743 325.884 311.942 325.965 313.687 325.967 C 311.943 325.97 250.743 326.051 153.761 326.179 L 153.549 326.18 L 153.549 325.967 C 153.535 264.038 153.518 187.466 153.5 104.727 L 153.5 104.467 L 153.761 104.467 L 153.779 104.467 C 211.095 104.476 265.459 104.484 313.687 104.491 L 313.923 104.491 L 313.923 104.727 C 313.875 170.189 313.834 225.523 313.806 264.499 C 313.779 283.96 313.757 299.335 313.743 309.851 C 313.731 315.096 313.721 319.128 313.714 321.855 C 313.708 323.208 313.703 324.236 313.701 324.934 C 313.696 325.623 313.687 325.967 313.687 325.967 Z " fill="rgb(44,61,67)"/><path d=" M 238.54 353.411 L 242.077 341.523 C 242.696 338.945 243.515 335.905 244.618 332.434 C 245.61 329.315 248.154 326.039 250.474 323.679 C 254.085 320.006 255.803 319.981 258.231 318.032 C 258.451 317.89 258.699 317.687 258.907 317.575 C 259.409 317.303 259.778 316.942 260.087 316.554 C 262.179 314.291 260.17 310.789 255.921 311.122 C 252.723 311.373 247.507 312.288 239.026 321.038 C 238.92 321.171 238.809 321.282 238.704 321.418 C 234.253 327.204 230.073 310.686 229.319 304.538 C 228.829 300.549 224.514 298.097 220.61 299.54 L 199.949 309.204 C 198.243 308.603 196.217 308.704 193.917 309.408 C 190.875 310.533 189.186 313.661 189.981 316.696 L 198.362 350.148 L 173.749 432.041 L 226.797 432.041 L 238.54 353.411 Z " fill="rgb(248,180,156)"/><path d=" M 279.292 278.198 L 262.894 310.331 L 254.696 308.054 L 213.48 341.579 C 209.973 344.433 204.831 343.976 201.883 340.549 L 186.19 322.313 C 186.19 322.313 217.832 308.684 223.684 297.4 C 229.536 286.117 222.773 283.559 222.773 283.559 L 237.665 266.636 L 279.292 278.198 Z " fill="rgb(240,99,109)"/><path d=" M 258.024 212.557 C 258.024 212.557 234.02 207.248 200.241 174.765 C 166.463 142.283 150.59 99.148 146.456 99.358 C 146.068 99.378 145.559 99.322 144.925 99.266 C 138.794 98.726 121.05 98.187 89.932 165.878 C 55.595 240.569 69.121 257.913 75.953 257.774 C 82.786 257.634 129.18 244.705 158.158 247.999 C 187.135 251.293 224.383 266.395 224.383 266.395 L 258.024 212.557 Z " fill="rgb(240,99,109)"/><path d=" M 309.017 253.268 L 300.827 268.839 L 297.159 275.813 C 292.128 285.381 280.489 289.335 270.67 284.811 L 219.221 266.886 L 249.185 198.482 L 300.587 225.875 C 310.453 231.134 314.221 243.373 309.017 253.268 Z " fill="rgb(240,99,109)"/><path d=" M 279.162 286.68 C 277.833 286.68 276.496 286.549 275.167 286.281 C 273.646 285.974 272.138 285.488 270.67 284.811 L 233.169 271.745 L 219.221 266.886 L 249.185 198.482 L 300.587 225.875 C 307.447 229.531 311.359 236.563 311.356 243.834 C 311.355 247.021 310.603 250.253 309.017 253.268 L 308.117 254.979 L 308.117 254.979 L 301.179 268.17 L 300.827 268.839 L 297.159 275.813 C 293.537 282.701 286.489 286.68 279.162 286.68 Z " fill="rgb(161,64,73)"/><path d=" M 92.706 167.238 C 74.433 207.698 66.826 243.753 75.716 247.769 C 84.606 251.784 106.627 222.238 124.901 181.778 C 143.174 141.318 150.781 105.263 141.891 101.248 C 133 97.232 110.98 126.777 92.706 167.238 Z " fill="rgb(240,99,109)"/><path d=" M 77.488 248.134 C 76.852 248.134 76.259 248.014 75.716 247.769 C 73.194 246.629 72 242.912 72 237.246 C 72 222.942 79.617 196.22 92.706 167.238 C 109.865 129.246 130.325 100.882 140.119 100.882 C 140.755 100.882 141.348 101.002 141.891 101.248 C 144.413 102.387 145.607 106.104 145.607 111.77 C 145.606 126.074 137.99 152.796 124.901 181.778 C 107.742 219.769 87.282 248.137 77.488 248.134 Z " fill="rgb(133,55,63)"/><path d=" M 313.432 275.767 L 299.488 271.387 L 308.117 254.979 L 318.576 261.48 L 313.432 275.767 Z " fill="rgb(240,99,109)"/><path d=" M 302.353 272.287 L 299.488 271.387 L 302.353 272.287 L 302.353 272.287 Z  M 309.369 255.757 L 308.117 254.979 L 309.369 255.757 Z " fill="rgb(101,104,105)"/><path d=" M 302.353 272.287 L 299.488 271.387 L 308.117 254.979 L 308.117 254.979 L 309.369 255.757 L 302.353 272.287 Z " fill="rgb(108,46,53)"/><path d=" M 298.508 258.764 C 298.304 259.215 291.344 256.51 282.965 252.722 C 274.58 248.934 267.953 245.497 268.158 245.047 C 268.361 244.597 275.319 247.302 283.703 251.09 C 292.083 254.878 298.711 258.313 298.508 258.764 Z " fill="rgb(240,99,109)"/><path d=" M 302.797 248.991 C 302.577 249.436 296.28 246.782 288.73 243.064 C 281.177 239.344 275.235 235.971 275.454 235.526 C 275.672 235.083 281.968 237.737 289.521 241.457 C 297.071 245.176 303.015 248.548 302.797 248.991 Z " fill="rgb(240,99,109)"/><path d=" M 293.099 269.014 C 293.025 269.251 291.369 268.869 288.726 268.053 C 287.407 267.645 285.841 267.129 284.111 266.53 C 282.391 265.906 280.607 265.004 278.695 264.138 C 271.065 260.597 265.241 257.129 265.43 256.718 C 265.656 256.232 271.883 259.003 279.442 262.51 C 281.337 263.369 283.095 264.315 284.753 265.008 C 286.418 265.681 287.911 266.309 289.158 266.862 C 291.652 267.97 293.171 268.777 293.099 269.014 Z " fill="rgb(240,99,109)"/><path d=" M 129.961 158.24 C 129.961 158.24 109.098 145.303 97.684 173.49 C 86.269 201.677 108.22 206.312 108.22 206.312 C 117.203 192.382 124.5 176.418 129.961 158.24 Z " fill="rgb(240,99,109)"/><path d=" M 92.39 247.693 C 92.386 247.693 92.382 247.692 92.38 247.689 C 92.285 247.61 93.427 246.041 95.573 243.27 C 97.799 240.447 100.925 236.484 104.763 231.617 C 106.528 229.031 108.454 226.208 110.521 223.181 C 111.559 221.668 112.633 220.104 113.739 218.495 C 114.293 217.691 114.854 216.874 115.424 216.047 C 115.973 215.207 116.452 214.302 116.979 213.415 C 119.056 209.842 121.235 206.095 123.493 202.212 C 124.06 201.241 124.631 200.263 125.207 199.276 C 125.793 198.295 126.23 197.224 126.757 196.189 C 127.769 194.102 128.796 191.983 129.835 189.839 C 130.878 187.697 131.908 185.58 132.923 183.494 C 133.41 182.442 133.984 181.437 134.39 180.37 C 134.809 179.308 135.225 178.254 135.638 177.209 C 137.294 173.035 138.892 169.007 140.416 165.167 C 140.787 164.204 141.202 163.27 141.524 162.318 C 141.822 161.358 142.116 160.411 142.407 159.477 C 142.989 157.61 143.555 155.797 144.103 154.043 C 145.206 150.545 146.234 147.282 147.178 144.293 C 148.627 138.28 149.807 133.384 150.649 129.896 C 151.495 126.517 152.023 124.647 152.148 124.647 C 152.149 124.647 152.15 124.647 152.15 124.647 C 152.272 124.668 151.975 126.582 151.333 130.032 C 150.673 133.476 149.74 138.477 148.402 144.615 C 147.52 147.639 146.556 150.94 145.522 154.479 C 144.999 156.253 144.457 158.086 143.901 159.973 C 143.621 160.918 143.337 161.875 143.049 162.845 C 142.738 163.808 142.331 164.752 141.969 165.725 C 140.466 169.604 138.89 173.672 137.256 177.887 C 136.846 178.942 136.432 180.004 136.014 181.077 C 135.608 182.153 135.034 183.166 134.547 184.227 C 133.527 186.33 132.494 188.463 131.447 190.621 C 130.396 192.779 129.359 194.911 128.336 197.013 C 127.804 198.052 127.36 199.13 126.766 200.116 C 126.181 201.106 125.601 202.09 125.026 203.065 C 122.722 206.956 120.498 210.711 118.378 214.291 C 117.836 215.178 117.346 216.081 116.781 216.921 C 116.195 217.749 115.618 218.566 115.046 219.371 C 113.906 220.979 112.797 222.539 111.725 224.049 C 109.579 227.052 107.576 229.854 105.743 232.42 C 101.754 237.254 98.409 241.066 96.111 243.714 C 93.86 246.279 92.546 247.693 92.39 247.693 Z " fill="rgb(133,55,63)"/><path d=" M 222.442 299.141 C 223.273 298.021 223.876 297.004 224.318 296.106 C 224.126 296.524 223.915 296.955 223.684 297.4 C 223.387 297.972 223.025 298.549 222.604 299.131 C 222.55 299.133 222.496 299.137 222.442 299.141 Z  M 225.054 294.342 C 225.653 292.583 225.585 291.596 225.839 291.594 C 225.84 291.594 225.842 291.593 225.843 291.593 C 225.681 292.426 225.426 293.34 225.054 294.342 Z " fill="rgb(148,150,151)"/><path d=" M 198.473 316.393 C 200.683 315.2 203.475 313.65 206.956 311.651 C 206.969 311.643 206.982 311.636 206.996 311.628 C 204.116 313.36 201.188 314.972 198.473 316.393 Z  M 217.414 304.427 C 219.663 302.487 221.277 300.711 222.442 299.141 C 222.496 299.137 222.55 299.133 222.604 299.131 C 221.337 300.879 219.539 302.664 217.414 304.427 Z " fill="rgb(160,116,100)"/><path d=" M 207.445 334.173 C 203.876 334.172 200.425 332.322 197.851 329.8 C 195.035 327.038 193.093 323.529 191.19 320.075 C 191.19 320.075 193.123 319.281 198.473 316.393 C 201.188 314.972 204.116 313.36 206.996 311.628 C 211.474 309.054 214.855 306.634 217.414 304.427 C 219.539 302.664 221.337 300.879 222.604 299.131 C 223.025 298.549 223.387 297.972 223.684 297.4 C 223.915 296.955 224.126 296.524 224.318 296.106 C 224.64 295.454 224.876 294.864 225.054 294.342 C 225.426 293.34 225.681 292.426 225.843 291.593 C 226.406 291.528 226.937 291.498 227.447 291.498 C 229.842 291.498 231.761 292.164 234.306 292.96 C 235.413 293.307 236.571 293.799 237.174 294.789 C 238.202 296.477 237.013 298.808 235.25 299.701 C 234.151 300.258 232.926 300.415 231.681 300.415 C 230.93 300.415 230.172 300.358 229.431 300.298 C 231.06 302.781 232.711 305.311 233.538 308.164 C 234.367 311.017 234.26 314.291 232.553 316.721 C 231.365 318.412 229.28 319.506 227.26 319.506 C 226.378 319.506 225.507 319.297 224.73 318.839 C 224.542 321.187 224.036 323.641 222.476 325.406 C 221.476 326.538 219.932 327.259 218.456 327.259 C 217.628 327.259 216.822 327.032 216.145 326.523 C 216.103 330.467 212.385 333.727 208.46 334.122 C 208.121 334.156 207.783 334.173 207.445 334.173 Z " fill="rgb(161,64,73)"/><path d=" M 236.611 332.31 C 236.597 332.403 235.254 332.146 233.077 332.205 C 230.913 332.254 227.889 332.728 224.902 334.161 C 221.912 335.594 219.648 337.655 218.254 339.311 C 216.846 340.972 216.206 342.18 216.125 342.132 C 216.096 342.116 216.225 341.8 216.519 341.257 C 216.812 340.713 217.289 339.953 217.969 339.079 C 219.314 337.332 221.601 335.165 224.676 333.692 C 227.749 332.218 230.87 331.791 233.075 331.837 C 234.182 331.853 235.074 331.958 235.681 332.07 C 236.288 332.181 236.617 332.278 236.611 332.31 Z " fill="rgb(246,152,118)"/><path d=" M 192.505 314.704 C 195.754 317.825 197.976 321.27 201.384 324.414 C 202.932 325.842 205.338 328.548 207.413 328.907 C 209.489 329.268 210.819 328.992 211.64 327.052 C 212.306 325.48 211.111 323.334 210.286 322.039 C 208.115 318.634 206.038 315.971 204.412 313.323 C 203.651 312.083 204.637 311.827 204.996 312.401 C 206.561 314.022 208.893 315.427 210.294 317.191 C 212.212 319.608 212.56 322.81 217.578 321.797 C 218.242 321.663 218.904 321.434 219.442 321.022 C 221.331 319.577 221.41 317.062 220.615 315.049 C 219.992 313.471 218.898 312.132 217.821 310.821 C 219.957 313.233 222.289 315.774 225.685 316.048 C 227.661 316.207 229.643 315.287 230.442 313.474 C 231.447 311.192 230.006 308.986 228.56 307.202 C 225.996 304.04 223.137 301.119 220.031 298.488 C 218.874 297.51 217.4 296.962 215.885 296.951 C 214.128 296.94 211.93 297.27 210.844 298.799 C 208.872 301.573 209.48 304.025 209.48 304.025 C 209.48 304.025 205.074 301.792 201.534 304.128 C 197.994 306.465 197.118 310.48 197.118 310.48 L 192.505 314.704 Z " fill="rgb(248,180,156)"/><path d=" M 215.95 295.983 C 214.586 294.61 214.269 292.099 215.327 290.024 C 216.076 288.556 217.021 287.129 217.98 286.806 C 222.171 285.392 240.482 288.56 240.315 292.623 C 240.144 296.797 238.811 298.633 228.873 297.198 C 227.125 296.945 224.382 296.601 224.382 296.601 L 221.983 300.201 L 215.95 295.983 Z " fill="rgb(248,180,156)"/><path d=" M 219.229 313.001 C 219.084 313.09 217.69 310.246 214.846 307.697 C 212.03 305.114 209.064 304.006 209.139 303.852 C 209.16 303.795 209.925 303.992 211.077 304.536 C 212.228 305.075 213.747 306.003 215.195 307.311 C 216.639 308.624 217.71 310.045 218.36 311.138 C 219.013 312.232 219.285 312.975 219.229 313.001 Z " fill="rgb(246,152,118)"/><path d=" M 222.31 300.513 C 222.219 300.599 221.011 299.611 219.361 298.602 C 218.541 298.098 217.781 297.674 217.212 297.418 C 216.647 297.152 216.272 297.079 216.273 297.001 C 216.269 296.935 216.703 296.881 217.339 297.072 C 217.975 297.253 218.794 297.642 219.636 298.16 C 221.326 299.193 222.432 300.403 222.31 300.513 Z " fill="rgb(246,152,118)"/><path d=" M 225.384 296.735 C 225.372 296.846 223.778 296.891 221.857 296.338 C 220.903 296.046 220.098 295.586 219.601 295.155 C 219.098 294.727 218.889 294.37 218.938 294.327 C 219.035 294.238 220.172 295.319 222.012 295.84 C 223.827 296.366 225.411 296.562 225.384 296.735 Z " fill="rgb(246,152,118)"/><path d=" M 207.588 318.032 C 207.529 318.074 206.881 317.247 205.918 315.861 C 204.935 314.508 203.685 312.489 201.644 311.004 C 199.603 309.517 197.2 309.164 195.59 309.4 C 193.947 309.629 193.09 310.307 193.039 310.211 C 193.022 310.187 193.214 310.002 193.623 309.749 C 194.029 309.49 194.68 309.207 195.531 309.037 C 197.215 308.69 199.782 309.003 201.948 310.581 C 204.104 312.157 205.319 314.257 206.225 315.658 C 207.11 317.098 207.646 317.99 207.588 318.032 Z " fill="rgb(246,152,118)"/><path d=" M 221.597 358.532 C 221.612 358.675 218.261 359.157 214.112 359.607 C 209.962 360.059 206.587 360.309 206.571 360.166 C 206.556 360.022 209.906 359.541 214.056 359.09 C 218.204 358.639 221.581 358.39 221.597 358.532 Z " fill="rgb(246,152,118)"/><path d=" M 379.128 25.957 L 380.257 28.021 L 382.322 29.15 L 380.257 30.279 L 379.128 32.343 L 377.999 30.279 L 375.935 29.15 L 377.999 28.021 L 379.128 25.957 Z " fill="rgb(240,99,109)"/><path d=" M 402.733 77.127 L 403.862 79.192 L 405.926 80.32 L 403.862 81.45 L 402.733 83.514 L 401.605 81.45 L 399.54 80.32 L 401.605 79.192 L 402.733 77.127 Z " fill="rgb(240,99,109)"/><path d=" M 24.4 213.647 L 25.529 215.711 L 27.593 216.84 L 25.529 217.969 L 24.4 220.033 L 23.271 217.969 L 21.207 216.84 L 23.271 215.711 L 24.4 213.647 Z " fill="rgb(240,99,109)"/><path d=" M 348.159 38.676 L 350.765 43.442 L 355.532 46.049 L 350.765 48.656 L 348.159 53.422 L 345.552 48.656 L 340.786 46.049 L 345.552 43.442 L 348.159 38.676 Z " fill="rgb(240,99,109)"/><path d=" M 45.558 181.211 L 48.159 185.967 L 52.915 188.568 L 48.159 191.169 L 45.558 195.925 L 42.957 191.169 L 38.201 188.568 L 42.957 185.967 L 45.558 181.211 Z " fill="rgb(240,99,109)"/><path d=" M 409.155 294.68 L 411.756 299.435 L 416.512 302.036 L 411.756 304.638 L 409.155 309.393 L 406.554 304.638 L 401.797 302.036 L 406.554 299.435 L 409.155 294.68 Z " fill="rgb(240,99,109)"/></g></g></svg>